# xmcd CD database file
#
# Track frame offsets:
#	150
#	13675
#	29196
#	44128
#	59742
#	75487
#	95224
#	108405
#	124641
#	141502
#	163394
#	178044
#	199257
#
# Disc length: 2880 seconds
#
# Revision: 0
# Processed by: cddbd v1.5.1PL2 Copyright (c) Steve Scherf et al.
# Submitted via: CDex 1.51
#
DISCID=cc0b3e0d
DTITLE=Music Show - ... y a bailar !!
DYEAR=1900
DGENRE=Merengue
TTITLE0=Rosa linda
TTITLE1=Amarte una vez más
TTITLE2=Eres mi vida
TTITLE3=No comprendí tu amor
TTITLE4=Obsesión
TTITLE5=Paisaje
TTITLE6=Loca
TTITLE7=Lo dejaría todo
TTITLE8=No a pedir perdón
TTITLE9=No me dejes solo
TTITLE10=Bésame en la boca
TTITLE11=No me digas que te vas
TTITLE12=Angel
EXTD=
EXTT0=
EXTT1=
EXTT2=
EXTT3=
EXTT4=
EXTT5=
EXTT6=
EXTT7=
EXTT8=
EXTT9=
EXTT10=
EXTT11=
EXTT12=
PLAYORDER=
